<mxfile host="app.diagrams.net" agent="Mozilla/5.0 (Macintosh; Intel Mac OS X 10_15_7) AppleWebKit/537.36 (KHTML, like Gecko) Chrome/131.0.0.0 Safari/537.36" version="25.0.3">
  <diagram name="Page-1" id="icbtAMpXjTqal6H1kOU1">
    <mxGraphModel dx="1193" dy="1968" grid="1" gridSize="10" guides="1" tooltips="1" connect="1" arrows="1" fold="1" page="1" pageScale="1" pageWidth="827" pageHeight="1169" math="0" shadow="0">
      <root>
        <mxCell id="0" />
        <mxCell id="1" parent="0" />
        <mxCell id="amNSyO6ynzr6-3V9OJCB-4" value="REST API" style="text;html=1;align=center;verticalAlign=middle;whiteSpace=wrap;rounded=0;" parent="1" vertex="1">
          <mxGeometry x="300" y="310" width="60" height="30" as="geometry" />
        </mxCell>
        <mxCell id="amNSyO6ynzr6-3V9OJCB-14" value="" style="endArrow=classic;html=1;rounded=0;exitX=0.5;exitY=0;exitDx=0;exitDy=0;exitPerimeter=0;" parent="1" edge="1">
          <mxGeometry width="50" height="50" relative="1" as="geometry">
            <mxPoint x="310" y="340.0000000000001" as="sourcePoint" />
            <mxPoint x="360" y="340" as="targetPoint" />
          </mxGeometry>
        </mxCell>
        <mxCell id="amNSyO6ynzr6-3V9OJCB-15" value="Product service" style="rounded=0;whiteSpace=wrap;html=1;" parent="1" vertex="1">
          <mxGeometry x="360" y="310" width="120" height="60" as="geometry" />
        </mxCell>
        <mxCell id="amNSyO6ynzr6-3V9OJCB-16" value="" style="endArrow=classic;html=1;rounded=0;exitX=0.5;exitY=1;exitDx=0;exitDy=0;" parent="1" source="amNSyO6ynzr6-3V9OJCB-15" edge="1">
          <mxGeometry width="50" height="50" relative="1" as="geometry">
            <mxPoint x="380" y="450" as="sourcePoint" />
            <mxPoint x="480" y="440" as="targetPoint" />
            <Array as="points">
              <mxPoint x="420" y="440" />
            </Array>
          </mxGeometry>
        </mxCell>
        <mxCell id="amNSyO6ynzr6-3V9OJCB-17" value="&lt;div&gt;No SQL DB&lt;/div&gt;" style="shape=cylinder3;whiteSpace=wrap;html=1;boundedLbl=1;backgroundOutline=1;size=15;" parent="1" vertex="1">
          <mxGeometry x="480" y="400" width="60" height="80" as="geometry" />
        </mxCell>
        <mxCell id="amNSyO6ynzr6-3V9OJCB-18" value="User Portal" style="rounded=0;whiteSpace=wrap;html=1;" parent="1" vertex="1">
          <mxGeometry x="1170" y="310" width="120" height="60" as="geometry" />
        </mxCell>
        <mxCell id="amNSyO6ynzr6-3V9OJCB-28" value="M&lt;span style=&quot;background-color: initial;&quot;&gt;arketing platform&lt;/span&gt;" style="rounded=0;whiteSpace=wrap;html=1;" parent="1" vertex="1">
          <mxGeometry x="1170" y="200" width="120" height="60" as="geometry" />
        </mxCell>
        <mxCell id="amNSyO6ynzr6-3V9OJCB-33" value="" style="endArrow=classic;html=1;rounded=0;exitX=1;exitY=0.5;exitDx=0;exitDy=0;entryX=0;entryY=0.5;entryDx=0;entryDy=0;" parent="1" source="oi7zK36rkkXy3CTbxWM6-8" edge="1">
          <mxGeometry width="50" height="50" relative="1" as="geometry">
            <mxPoint x="570" y="130" as="sourcePoint" />
            <mxPoint x="650" y="340" as="targetPoint" />
            <Array as="points">
              <mxPoint x="600" y="60" />
              <mxPoint x="600" y="200" />
              <mxPoint x="600" y="340" />
            </Array>
          </mxGeometry>
        </mxCell>
        <mxCell id="amNSyO6ynzr6-3V9OJCB-38" value="Consumer service&lt;div&gt;REST API + Websocket&lt;/div&gt;" style="rounded=0;whiteSpace=wrap;html=1;" parent="1" vertex="1">
          <mxGeometry x="950" y="310" width="120" height="60" as="geometry" />
        </mxCell>
        <mxCell id="amNSyO6ynzr6-3V9OJCB-39" value="marketting service&lt;div&gt;REST API + Websocket&lt;/div&gt;" style="rounded=0;whiteSpace=wrap;html=1;" parent="1" vertex="1">
          <mxGeometry x="950" y="200" width="120" height="60" as="geometry" />
        </mxCell>
        <mxCell id="oi7zK36rkkXy3CTbxWM6-2" value="LB" style="rounded=0;whiteSpace=wrap;html=1;" vertex="1" parent="1">
          <mxGeometry x="1110" y="180" width="20" height="100" as="geometry" />
        </mxCell>
        <mxCell id="oi7zK36rkkXy3CTbxWM6-3" value="LB" style="rounded=0;whiteSpace=wrap;html=1;" vertex="1" parent="1">
          <mxGeometry x="1110" y="300" width="20" height="100" as="geometry" />
        </mxCell>
        <mxCell id="oi7zK36rkkXy3CTbxWM6-4" value="Cache" style="rounded=0;whiteSpace=wrap;html=1;" vertex="1" parent="1">
          <mxGeometry x="950" y="430" width="120" height="60" as="geometry" />
        </mxCell>
        <mxCell id="oi7zK36rkkXy3CTbxWM6-5" value="Cache" style="rounded=0;whiteSpace=wrap;html=1;" vertex="1" parent="1">
          <mxGeometry x="950" y="90" width="120" height="60" as="geometry" />
        </mxCell>
        <mxCell id="oi7zK36rkkXy3CTbxWM6-6" value="" style="endArrow=classic;startArrow=classic;html=1;rounded=0;exitX=0.5;exitY=0;exitDx=0;exitDy=0;entryX=0.5;entryY=1;entryDx=0;entryDy=0;" edge="1" parent="1" source="oi7zK36rkkXy3CTbxWM6-4" target="amNSyO6ynzr6-3V9OJCB-38">
          <mxGeometry width="50" height="50" relative="1" as="geometry">
            <mxPoint x="750" y="290" as="sourcePoint" />
            <mxPoint x="800" y="240" as="targetPoint" />
          </mxGeometry>
        </mxCell>
        <mxCell id="oi7zK36rkkXy3CTbxWM6-7" value="" style="endArrow=classic;startArrow=classic;html=1;rounded=0;exitX=0.5;exitY=0;exitDx=0;exitDy=0;entryX=0.5;entryY=1;entryDx=0;entryDy=0;" edge="1" parent="1" source="amNSyO6ynzr6-3V9OJCB-39" target="oi7zK36rkkXy3CTbxWM6-5">
          <mxGeometry width="50" height="50" relative="1" as="geometry">
            <mxPoint x="1020" y="440" as="sourcePoint" />
            <mxPoint x="1020" y="380" as="targetPoint" />
          </mxGeometry>
        </mxCell>
        <mxCell id="oi7zK36rkkXy3CTbxWM6-8" value="Service for dashborad" style="rounded=0;whiteSpace=wrap;html=1;" vertex="1" parent="1">
          <mxGeometry x="450" y="30" width="120" height="60" as="geometry" />
        </mxCell>
        <mxCell id="oi7zK36rkkXy3CTbxWM6-9" value="PIM Dashboard" style="rounded=0;whiteSpace=wrap;html=1;" vertex="1" parent="1">
          <mxGeometry x="450" y="-90" width="120" height="60" as="geometry" />
        </mxCell>
        <mxCell id="oi7zK36rkkXy3CTbxWM6-10" value="" style="endArrow=classic;html=1;rounded=0;exitX=0.5;exitY=1;exitDx=0;exitDy=0;" edge="1" parent="1" source="oi7zK36rkkXy3CTbxWM6-9" target="oi7zK36rkkXy3CTbxWM6-8">
          <mxGeometry width="50" height="50" relative="1" as="geometry">
            <mxPoint x="750" y="100" as="sourcePoint" />
            <mxPoint x="800" y="50" as="targetPoint" />
          </mxGeometry>
        </mxCell>
        <mxCell id="oi7zK36rkkXy3CTbxWM6-11" value="Decides changes in products, prices, discounts etc" style="text;html=1;align=center;verticalAlign=middle;whiteSpace=wrap;rounded=0;" vertex="1" parent="1">
          <mxGeometry x="570" y="-75" width="300" height="30" as="geometry" />
        </mxCell>
        <mxCell id="oi7zK36rkkXy3CTbxWM6-12" value="" style="shape=cylinder3;whiteSpace=wrap;html=1;boundedLbl=1;backgroundOutline=1;size=15;" vertex="1" parent="1">
          <mxGeometry x="835" y="90" width="60" height="80" as="geometry" />
        </mxCell>
        <mxCell id="oi7zK36rkkXy3CTbxWM6-14" value="" style="shape=cylinder3;whiteSpace=wrap;html=1;boundedLbl=1;backgroundOutline=1;size=15;" vertex="1" parent="1">
          <mxGeometry x="840" y="420" width="60" height="80" as="geometry" />
        </mxCell>
        <mxCell id="oi7zK36rkkXy3CTbxWM6-18" value="" style="endArrow=classic;html=1;rounded=0;entryX=0;entryY=0.5;entryDx=0;entryDy=0;" edge="1" parent="1" target="amNSyO6ynzr6-3V9OJCB-39">
          <mxGeometry width="50" height="50" relative="1" as="geometry">
            <mxPoint x="780" y="230" as="sourcePoint" />
            <mxPoint x="800" y="190" as="targetPoint" />
          </mxGeometry>
        </mxCell>
        <mxCell id="oi7zK36rkkXy3CTbxWM6-19" value="" style="endArrow=classic;html=1;rounded=0;entryX=0;entryY=0.5;entryDx=0;entryDy=0;exitX=0.5;exitY=0;exitDx=0;exitDy=0;exitPerimeter=0;" edge="1" parent="1" target="amNSyO6ynzr6-3V9OJCB-38">
          <mxGeometry width="50" height="50" relative="1" as="geometry">
            <mxPoint x="780" y="340" as="sourcePoint" />
            <mxPoint x="960" y="240" as="targetPoint" />
          </mxGeometry>
        </mxCell>
        <mxCell id="oi7zK36rkkXy3CTbxWM6-20" value="" style="rounded=1;whiteSpace=wrap;html=1;" vertex="1" parent="1">
          <mxGeometry x="650" y="180" width="130" height="230" as="geometry" />
        </mxCell>
        <mxCell id="oi7zK36rkkXy3CTbxWM6-21" value="Kafka" style="text;html=1;align=center;verticalAlign=middle;whiteSpace=wrap;rounded=0;" vertex="1" parent="1">
          <mxGeometry x="680" y="150" width="60" height="30" as="geometry" />
        </mxCell>
        <mxCell id="oi7zK36rkkXy3CTbxWM6-22" value="New data and changes" style="text;html=1;align=center;verticalAlign=middle;whiteSpace=wrap;rounded=0;" vertex="1" parent="1">
          <mxGeometry x="810" y="200" width="90" height="30" as="geometry" />
        </mxCell>
        <mxCell id="oi7zK36rkkXy3CTbxWM6-23" value="New data and changes" style="text;html=1;align=center;verticalAlign=middle;whiteSpace=wrap;rounded=0;" vertex="1" parent="1">
          <mxGeometry x="820" y="350" width="90" height="30" as="geometry" />
        </mxCell>
        <mxCell id="oi7zK36rkkXy3CTbxWM6-25" value="Marketting topic" style="rounded=0;whiteSpace=wrap;html=1;" vertex="1" parent="1">
          <mxGeometry x="660" y="220" width="110" height="40" as="geometry" />
        </mxCell>
        <mxCell id="oi7zK36rkkXy3CTbxWM6-26" value="user portal topic" style="rounded=0;whiteSpace=wrap;html=1;" vertex="1" parent="1">
          <mxGeometry x="660" y="310" width="110" height="40" as="geometry" />
        </mxCell>
        <mxCell id="oi7zK36rkkXy3CTbxWM6-29" value="" style="endArrow=classic;startArrow=classic;html=1;rounded=0;entryX=0;entryY=0.25;entryDx=0;entryDy=0;exitX=1;exitY=0.5;exitDx=0;exitDy=0;exitPerimeter=0;" edge="1" parent="1" source="oi7zK36rkkXy3CTbxWM6-12" target="amNSyO6ynzr6-3V9OJCB-39">
          <mxGeometry width="50" height="50" relative="1" as="geometry">
            <mxPoint x="750" y="240" as="sourcePoint" />
            <mxPoint x="800" y="190" as="targetPoint" />
            <Array as="points">
              <mxPoint x="920" y="130" />
              <mxPoint x="920" y="215" />
            </Array>
          </mxGeometry>
        </mxCell>
        <mxCell id="oi7zK36rkkXy3CTbxWM6-30" value="" style="endArrow=classic;startArrow=classic;html=1;rounded=0;entryX=0.25;entryY=1;entryDx=0;entryDy=0;exitX=1;exitY=0.5;exitDx=0;exitDy=0;exitPerimeter=0;" edge="1" parent="1" source="oi7zK36rkkXy3CTbxWM6-14" target="amNSyO6ynzr6-3V9OJCB-38">
          <mxGeometry width="50" height="50" relative="1" as="geometry">
            <mxPoint x="750" y="240" as="sourcePoint" />
            <mxPoint x="800" y="190" as="targetPoint" />
            <Array as="points">
              <mxPoint x="920" y="460" />
              <mxPoint x="920" y="400" />
              <mxPoint x="980" y="400" />
            </Array>
          </mxGeometry>
        </mxCell>
        <mxCell id="oi7zK36rkkXy3CTbxWM6-31" value="" style="endArrow=classic;startArrow=classic;html=1;rounded=0;exitX=0.5;exitY=0;exitDx=0;exitDy=0;exitPerimeter=0;entryX=0.5;entryY=1;entryDx=0;entryDy=0;" edge="1" parent="1" source="amNSyO6ynzr6-3V9OJCB-17" target="oi7zK36rkkXy3CTbxWM6-37">
          <mxGeometry width="50" height="50" relative="1" as="geometry">
            <mxPoint x="670" y="240" as="sourcePoint" />
            <mxPoint x="510" y="220" as="targetPoint" />
          </mxGeometry>
        </mxCell>
        <mxCell id="oi7zK36rkkXy3CTbxWM6-32" value="With outbox table&lt;div&gt;&lt;br&gt;&lt;/div&gt;" style="text;html=1;align=center;verticalAlign=middle;whiteSpace=wrap;rounded=0;" vertex="1" parent="1">
          <mxGeometry x="540" y="150" width="100" height="30" as="geometry" />
        </mxCell>
        <mxCell id="oi7zK36rkkXy3CTbxWM6-33" value="REST API" style="text;html=1;align=center;verticalAlign=middle;whiteSpace=wrap;rounded=0;" vertex="1" parent="1">
          <mxGeometry x="520" y="-20" width="60" height="30" as="geometry" />
        </mxCell>
        <mxCell id="oi7zK36rkkXy3CTbxWM6-35" value="" style="endArrow=classic;startArrow=classic;html=1;rounded=0;entryX=0;entryY=0.5;entryDx=0;entryDy=0;exitX=1;exitY=0.5;exitDx=0;exitDy=0;" edge="1" parent="1" source="amNSyO6ynzr6-3V9OJCB-39" target="amNSyO6ynzr6-3V9OJCB-28">
          <mxGeometry width="50" height="50" relative="1" as="geometry">
            <mxPoint x="910" y="240" as="sourcePoint" />
            <mxPoint x="960" y="190" as="targetPoint" />
          </mxGeometry>
        </mxCell>
        <mxCell id="oi7zK36rkkXy3CTbxWM6-36" value="" style="endArrow=classic;startArrow=classic;html=1;rounded=0;exitX=1;exitY=0.5;exitDx=0;exitDy=0;entryX=0;entryY=0.5;entryDx=0;entryDy=0;" edge="1" parent="1" source="amNSyO6ynzr6-3V9OJCB-38" target="amNSyO6ynzr6-3V9OJCB-18">
          <mxGeometry width="50" height="50" relative="1" as="geometry">
            <mxPoint x="910" y="240" as="sourcePoint" />
            <mxPoint x="960" y="190" as="targetPoint" />
          </mxGeometry>
        </mxCell>
        <mxCell id="oi7zK36rkkXy3CTbxWM6-37" value="Data segregation" style="rounded=0;whiteSpace=wrap;html=1;" vertex="1" parent="1">
          <mxGeometry x="450" y="230" width="120" height="60" as="geometry" />
        </mxCell>
        <mxCell id="oi7zK36rkkXy3CTbxWM6-38" value="SQL DB" style="shape=cylinder3;whiteSpace=wrap;html=1;boundedLbl=1;backgroundOutline=1;size=15;" vertex="1" parent="1">
          <mxGeometry x="480" y="120" width="60" height="80" as="geometry" />
        </mxCell>
        <mxCell id="oi7zK36rkkXy3CTbxWM6-39" value="" style="endArrow=classic;startArrow=classic;html=1;rounded=0;exitX=0.5;exitY=0;exitDx=0;exitDy=0;exitPerimeter=0;entryX=0.5;entryY=1;entryDx=0;entryDy=0;" edge="1" parent="1" source="oi7zK36rkkXy3CTbxWM6-38" target="oi7zK36rkkXy3CTbxWM6-8">
          <mxGeometry width="50" height="50" relative="1" as="geometry">
            <mxPoint x="910" y="240" as="sourcePoint" />
            <mxPoint x="960" y="190" as="targetPoint" />
          </mxGeometry>
        </mxCell>
        <mxCell id="oi7zK36rkkXy3CTbxWM6-40" value="" style="endArrow=classic;startArrow=classic;html=1;rounded=0;exitX=0.5;exitY=0;exitDx=0;exitDy=0;entryX=0.5;entryY=1;entryDx=0;entryDy=0;entryPerimeter=0;" edge="1" parent="1" source="oi7zK36rkkXy3CTbxWM6-37" target="oi7zK36rkkXy3CTbxWM6-38">
          <mxGeometry width="50" height="50" relative="1" as="geometry">
            <mxPoint x="910" y="240" as="sourcePoint" />
            <mxPoint x="960" y="190" as="targetPoint" />
          </mxGeometry>
        </mxCell>
        <mxCell id="oi7zK36rkkXy3CTbxWM6-41" value="Segregates data and stores into different tables&amp;nbsp;" style="text;html=1;align=center;verticalAlign=middle;whiteSpace=wrap;rounded=0;" vertex="1" parent="1">
          <mxGeometry x="360" y="190" width="120" height="30" as="geometry" />
        </mxCell>
        <mxCell id="oi7zK36rkkXy3CTbxWM6-42" value="Database listener" style="text;html=1;align=center;verticalAlign=middle;whiteSpace=wrap;rounded=0;" vertex="1" parent="1">
          <mxGeometry x="500" y="350" width="90" height="30" as="geometry" />
        </mxCell>
      </root>
    </mxGraphModel>
  </diagram>
</mxfile>
